HIERARCHY
ROOT Hips
{
	OFFSET 0.00000 0.00000 0.00000
	CHANNELS 6 Xposition Yposition Zposition Zrotation Yrotation Xrotation 
	JOINT LHipJoint
	{
		OFFSET 0 0 0
		CHANNELS 3 Zrotation Yrotation Xrotation
		JOINT LeftUpLeg
		{
			OFFSET 1.58161 -1.81893 0.78828
			CHANNELS 3 Zrotation Yrotation Xrotation
			JOINT LeftLeg
			{
				OFFSET 2.53374 -6.96141 0.00000
				CHANNELS 3 Zrotation Yrotation Xrotation
				JOINT LeftFoot
				{
					OFFSET 2.63509 -7.23986 0.00000
					CHANNELS 3 Zrotation Yrotation Xrotation
					JOINT LeftToeBase
					{
						OFFSET 0.14115 -0.38781 2.05350
						CHANNELS 3 Zrotation Yrotation Xrotation
						End Site
						{
							OFFSET 0.00000 -0.00000 1.05543
						}
					}
				}
			}
		}
	}
	JOINT RHipJoint
	{
		OFFSET 0 0 0
		CHANNELS 3 Zrotation Yrotation Xrotation
		JOINT RightUpLeg
		{
			OFFSET -1.11138 -1.81893 0.78828
			CHANNELS 3 Zrotation Yrotation Xrotation
			JOINT RightLeg
			{
				OFFSET -2.58392 -7.09926 0.00000
				CHANNELS 3 Zrotation Yrotation Xrotation
				JOINT RightFoot
				{
					OFFSET -2.66423 -7.31992 0.00000
					CHANNELS 3 Zrotation Yrotation Xrotation
					JOINT RightToeBase
					{
						OFFSET -0.18831 -0.51739 2.12114
						CHANNELS 3 Zrotation Yrotation Xrotation
						End Site
						{
							OFFSET -0.00000 -0.00000 1.09845
						}
					}
				}
			}
		}
	}
	JOINT LowerBack
	{
		OFFSET 0 0 0
		CHANNELS 3 Zrotation Yrotation Xrotation
		JOINT Spine
		{
			OFFSET -0.01511 1.97958 -0.08829
			CHANNELS 3 Zrotation Yrotation Xrotation
			JOINT Spine1
			{
				OFFSET 0.08344 1.97334 -0.04330
				CHANNELS 3 Zrotation Yrotation Xrotation
				JOINT Neck
				{
					OFFSET 0 0 0
					CHANNELS 3 Zrotation Yrotation Xrotation
					JOINT Neck1
					{
						OFFSET 0.00559 1.76246 0.31246
						CHANNELS 3 Zrotation Yrotation Xrotation
						JOINT Head
						{
							OFFSET -0.07011 1.80354 -0.30524
							CHANNELS 3 Zrotation Yrotation Xrotation
							End Site
							{
								OFFSET -0.02385 1.83547 -0.13906
							}
						}
					}
				}
				JOINT LeftShoulder
				{
					OFFSET 0 0 0
					CHANNELS 3 Zrotation Yrotation Xrotation
					JOINT LeftArm
					{
						OFFSET 3.20667 1.30156 -0.60240
						CHANNELS 3 Zrotation Yrotation Xrotation
						JOINT LeftForeArm
						{
							OFFSET 4.95663 -0.00000 0.00000
							CHANNELS 3 Zrotation Yrotation Xrotation
							JOINT LeftHand
							{
								OFFSET 3.38177 -0.00000 0.00000
								CHANNELS 3 Zrotation Yrotation Xrotation
								JOINT LeftFingerBase
								{
									OFFSET 0 0 0
									CHANNELS 3 Zrotation Yrotation Xrotation
									JOINT LeftHandIndex1
									{
										OFFSET 0.66291 -0.00000 0.00000
										CHANNELS 3 Zrotation Yrotation Xrotation
										End Site
										{
											OFFSET 0.53445 -0.00000 0.00000
										}
									}
								}
								JOINT LThumb
								{
									OFFSET 0 0 0
									CHANNELS 3 Zrotation Yrotation Xrotation
									End Site
									{
										OFFSET 0.54261 -0.00000 0.54261
									}
								}
							}
						}
					}
				}
				JOINT RightShoulder
				{
					OFFSET 0 0 0
					CHANNELS 3 Zrotation Yrotation Xrotation
					JOINT RightArm
					{
						OFFSET -3.06877 1.34672 -0.60964
						CHANNELS 3 Zrotation Yrotation Xrotation
						JOINT RightForeArm
						{
							OFFSET -5.08365 -0.00000 0.00000
							CHANNELS 3 Zrotation Yrotation Xrotation
							JOINT RightHand
							{
								OFFSET -3.35984 -0.00000 0.00000
								CHANNELS 3 Zrotation Yrotation Xrotation
								JOINT RightFingerBase
								{
									OFFSET 0 0 0
									CHANNELS 3 Zrotation Yrotation Xrotation
									JOINT RightHandIndex1
									{
										OFFSET -0.82076 -0.00000 0.00000
										CHANNELS 3 Zrotation Yrotation Xrotation
										End Site
										{
											OFFSET -0.66172 -0.00000 0.00000
										}
									}
								}
								JOINT RThumb
								{
									OFFSET 0 0 0
									CHANNELS 3 Zrotation Yrotation Xrotation
									End Site
									{
										OFFSET -0.67182 -0.00000 0.67182
									}
								}
							}
						}
					}
				}
			}
		}
	}
}
MOTION
Frames: 11
Frame Time: 0.117647
0.00 0.00 0.00 0 0 0 0 0 0 -21 0 0 0 0 0 0 0 0 0 0 0 0 0 0 21 0 0 0 0 0 0 0 0 0 0 0 0 0 0 0 0 0 0 0 0 0 0 -16 0 0 21 0 0 11 0 0 0 -8 0 0 0 0 0 0 0 0 0 0 0 0 0 0 0 0 0 0 0 0 8 0 0 0 0 0 0 0 0 0 0 0 0 0 0 0 0 0
0.00 0.00 0.00 -22.5954 65.3976 -6.5161 0.0000 0.0000 0.0000 -2.0605 8.1385 -27.0747 3.3852 11.2939 33.2776 0.6064 4.3294 -16.9229 0.7233 -5.4343 -15.1516 0.0000 0.0000 0.0000 15.9668 20.3408 -27.9548 -2.2581 -9.3842 27.0047 -0.1002 6.4289 -6.7492 -0.0023 0.3064 -0.8418 -8.8518 -0.9779 4.3771 1.7419 -1.4662 4.6070 6.8329 -1.0018 2.6405 3.8369 8.5973 -12.7478 -9.9783 16.3253 33.2701 -1.9155 6.4672 14.9457 -0.0000 0.0000 0.0000 -104.1735 -37.8966 117.8617 13.4294 -21.9131 -2.6114 -0.0000 0.0000 -20.1311 -9.0177 44.3966 -6.3357 -7.1250 0.0000 -0.0000 23.4606 -20.9055 -165.1842 -0.0000 0.0000 0.0000 97.7199 15.9238 34.6209 -36.5184 45.8664 -15.8934 0.0000 -0.0000 -56.9340 -48.4855 -2.0803 2.3484 7.1250 -0.0000 -0.0000 -17.6093 -32.7320 -5.5188
0.00 0.00 0.00 -18.9824 54.1895 -4.4914 0.0000 0.0000 0.0000 0.7614 15.2928 -22.4935 3.6672 11.7038 34.6921 0.1730 8.8322 -15.3798 2.0916 -9.0544 -25.9656 0.0000 0.0000 0.0000 21.0962 21.9328 -25.3637 -2.2707 -9.4086 27.0821 0.5507 15.2384 -2.8754 -0.2434 -3.1749 8.7661 -12.3723 -5.1452 4.4200 -0.3813 -7.0900 4.0947 6.4852 -3.8805 3.3268 4.9628 15.7293 -8.0570 -13.6851 26.0331 25.7771 -2.0010 10.8777 12.4781 0.0000 -0.0000 0.0000 -126.2006 -49.8938 131.3181 13.4861 -21.9953 -2.6326 -0.0000 0.0000 -1.2249 6.1653 13.9875 1.4956 -7.1250 0.0000 -0.0000 20.5370 -46.8095 179.0436 0.0000 -0.0000 0.0000 94.1888 21.5619 24.0879 -74.3912 59.0591 -46.5251 0.0000 -0.0000 -40.1498 -64.7421 8.6540 -17.6887 7.1250 -0.0000 -0.0000 -24.6948 -11.5195 -21.4128
0.00 0.00 0.00 -16.8014 48.9826 -2.9483 0.0000 0.0000 0.0000 1.9931 17.8825 -19.2594 3.6700 11.7078 34.7061 -0.0360 9.9793 -13.6075 3.0823 -10.8271 -31.6990 0.0000 0.0000 0.0000 22.8079 23.6729 -24.0716 -2.4247 -9.6997 28.0095 0.9523 18.4639 -0.9389 -0.6533 -5.1701 14.3943 -13.7898 -6.6366 4.5748 -1.3156 -9.1736 3.2816 6.2377 -4.8611 2.8827 4.6964 17.9562 -7.0639 -14.5373 28.4969 21.8980 -1.9540 12.1717 11.1574 0.0000 0.0000 0.0000 -144.4209 -54.2076 144.4248 14.7857 -23.8467 -3.1388 -0.0000 -0.0000 5.1604 12.1474 3.4096 0.7334 -7.1250 0.0000 -0.0000 17.9950 -56.5475 174.7883 0.0000 0.0000 0.0000 89.1219 29.9840 20.2305 -95.0068 59.9051 -64.3347 0.0000 -0.0000 -26.7905 -69.2157 15.3735 -34.9337 7.1250 -0.0000 -0.0000 -24.8342 4.8990 -29.6981
0.00 0.00 0.00 -14.0832 42.8690 -0.4775 0.0000 0.0000 0.0000 2.9124 18.9388 -15.5960 3.7504 11.8206 35.1004 -0.3985 12.4145 -10.5085 3.4280 -11.3576 -33.4957 0.0000 0.0000 0.0000 24.3424 25.7426 -22.6187 -2.5611 -9.9481 28.8089 1.5293 21.9584 2.3754 -1.5814 -7.9335 22.5121 -14.9104 -8.0942 4.4362 -2.4375 -11.2289 1.8378 5.6446 -5.7294 1.8321 3.6040 19.8670 -6.4136 -14.7158 29.8084 15.7678 -1.9333 13.2053 8.8220 0.0000 -0.0000 0.0000 -171.0850 -53.1525 166.2286 17.4551 -27.4538 -4.2950 -0.0000 -0.0000 7.2407 21.8944 1.0946 0.4399 -7.1250 0.0000 -0.0000 6.1738 -58.8296 177.9079 0.0000 -0.0000 0.0000 70.8950 42.2733 7.9628 -112.4734 58.0029 -79.3321 0.0000 -0.0000 -9.2989 -73.1377 21.3593 -50.2324 7.1250 -0.0000 -0.0000 -25.4735 19.2963 -35.3171
0.00 0.00 0.00 -11.0466 38.6796 3.1193 0.0000 0.0000 0.0000 4.2857 18.9778 -13.5226 3.7580 11.8312 35.1373 -0.6357 14.4474 -1.3584 3.4714 -11.4217 -33.7156 0.0000 0.0000 0.0000 25.2415 28.2301 -20.5235 -2.4211 -9.6931 27.9884 1.7918 23.0447 5.9073 -2.7185 -10.2247 29.7076 -15.1000 -8.6227 4.9485 -3.9983 -12.2273 -0.0166 4.3979 -5.9456 -0.5497 1.8104 21.2235 -5.7255 -13.8509 30.2332 9.2716 -1.8888 13.9679 6.1776 -0.0000 -0.0000 0.0000 165.2319 -43.0477 -174.7587 22.4750 -33.5097 -6.8462 -0.0000 -0.0000 11.0638 37.7484 -2.1691 -1.6785 -7.1250 0.0000 -0.0000 -16.6536 -62.5550 -172.7905 -0.0000 -0.0000 0.0000 25.4250 37.7605 -26.1663 -126.1234 54.4442 -90.7001 0.0000 0.0000 7.7374 -77.1638 22.3065 -59.0227 7.1250 -0.0000 -0.0000 -27.8707 26.2747 -40.6722
0.00 0.00 0.00 -130.3040 85.4561 -110.8000 0.0000 0.0000 0.0000 -10.7308 2.5638 -38.7041 2.5208 9.8756 28.5749 0.1449 -4.5495 -7.0162 0.5596 -4.7915 -13.3149 0.0000 0.0000 0.0000 10.0689 11.3976 -32.2671 -3.0870 -10.8346 31.7241 0.0518 -9.2175 -12.1654 -0.6863 5.2963 -14.7558 -1.9729 -9.3668 4.6591 7.0183 -12.4684 5.1304 8.3536 -6.4598 4.8610 6.4348 9.7015 -12.7265 -17.3687 16.4695 19.4151 -4.8536 6.5785 10.4096 -0.0000 -0.0000 0.0000 -158.0435 -46.2614 143.9898 12.0897 -19.9391 -2.1328 -0.0000 -0.0000 3.8992 17.1706 13.8989 4.2448 -7.1250 0.0000 -0.0000 9.6914 -45.7069 179.8293 -0.0000 -0.0000 0.0000 70.6500 35.5253 8.2823 -87.6676 59.9794 -57.9802 0.0000 -0.0000 -28.8647 -69.8550 15.1451 -35.4586 7.1250 -0.0000 -0.0000 -25.2244 5.1814 -30.3883
0.00 0.00 0.00 -179.7400 69.8635 -162.9880 0.0000 0.0000 0.0000 -14.8834 -3.8284 -34.0385 1.8096 8.4578 24.1134 -0.6501 -15.7864 -1.7516 0.3344 -3.7166 -10.2806 0.0000 0.0000 0.0000 6.6473 6.7044 -26.8185 -4.0266 -12.1957 36.4278 0.5432 -15.8719 -15.7259 -0.1066 2.1055 -5.7974 2.2203 -9.1607 0.5235 9.6440 -12.2363 4.8796 8.2981 -6.1122 6.6108 5.5832 3.1851 -14.2265 -16.5490 8.0104 23.5053 -5.8367 2.5714 10.8706 0.0000 -0.0000 0.0000 -139.0364 -43.4183 124.2798 10.1367 -16.9532 -1.5146 -0.0000 -0.0000 4.6938 13.7404 23.9120 5.6602 -7.1250 0.0000 -0.0000 11.8267 -36.1455 -177.3800 0.0000 -0.0000 0.0000 79.7866 26.2005 19.5243 -64.7987 57.4587 -38.3613 0.0000 -0.0000 -44.4737 -67.8619 9.0219 -21.0788 7.1250 -0.0000 -0.0000 -26.1407 -8.7374 -24.6663
0.00 0.00 0.00 -186.2760 49.9156 -176.6160 0.0000 0.0000 0.0000 -23.4127 -2.4486 -18.1611 0.3738 3.9271 10.8716 -2.1835 -25.2483 13.2174 0.3713 3.9139 10.8347 0.0000 0.0000 0.0000 3.4046 3.0859 -12.8069 -5.0020 -13.3860 40.8312 1.5966 -22.0534 -12.8296 -0.3292 -3.6875 10.1990 2.8604 -6.1327 -5.2737 13.1086 -8.2477 3.0798 11.7767 -3.9727 7.9461 -0.8253 -7.7224 -11.5056 -14.7401 -5.1926 28.6356 -5.7690 -3.6344 10.7081 0.0000 0.0000 0.0000 -115.7337 -35.0721 101.6715 8.2832 -14.0109 -1.0196 -0.0000 0.0000 -3.4272 -11.3243 59.4901 -9.7890 -7.1250 0.0000 -0.0000 21.5432 -6.5566 -159.5144 0.0000 0.0000 0.0000 89.2143 22.7509 34.7097 -25.5506 36.7614 -8.6173 0.0000 -0.0000 -66.8960 -42.5534 -7.1903 6.5550 7.1250 -0.0000 -0.0000 -13.7152 -39.3349 -1.9577
0.00 0.00 0.00 -185.1230 40.1186 -179.4160 0.0000 0.0000 0.0000 -24.4055 -4.5092 -10.8157 0.2449 3.1848 8.7936 -2.4474 -26.8016 15.6686 0.8001 5.7093 15.9432 0.0000 0.0000 0.0000 4.1139 0.6379 -5.1936 -4.9894 -13.3719 40.7770 1.9298 -23.8641 -6.0224 -0.6713 -5.2392 14.5921 3.5488 -3.1839 -7.1307 14.9186 -3.7533 0.7614 14.1184 -1.4303 5.6941 -4.4427 -13.7097 -6.9029 -12.2754 -13.3082 29.9417 -4.8349 -7.1277 10.1339 -0.0000 -0.0000 0.0000 -109.9502 -30.3857 85.9265 8.2028 -13.8811 -1.0002 -0.0000 0.0000 -37.0811 -9.7712 67.8703 -9.0638 -7.1250 0.0000 -0.0000 159.6173 9.1604 18.0948 -0.0000 -0.0000 0.0000 97.2571 29.9711 41.9047 -11.2697 18.7004 -1.8615 0.0000 -0.0000 -44.6801 -15.4809 -14.2145 3.8907 7.1250 -0.0000 -0.0000 11.0563 -44.4207 0.1601
0.00 0.00 0.00 -180.7150 26.5530 -180.4100 0.0000 0.0000 0.0000 -22.6753 -9.5368 -7.6322 0.8618 5.9199 16.5521 -3.6042 -31.9323 19.9260 2.4118 9.6757 27.9329 0.0000 0.0000 0.0000 6.8808 -6.0743 4.7395 -4.1095 -12.3047 36.8186 1.1977 -22.5821 4.8431 -0.6869 -5.2988 14.7629 8.5930 3.2463 -7.2241 14.8666 6.0847 -2.3851 11.7467 4.1291 0.5520 -4.6800 -22.2963 -2.3627 -6.7656 -26.6947 28.2107 -3.5410 -12.4548 8.9790 0.0000 -0.0000 0.0000 -98.2486 -36.6173 60.3856 22.8262 -33.8982 -7.0411 -0.0000 0.0000 -61.6732 23.3345 40.6270 15.6893 -7.1250 0.0000 -0.0000 6.4776 -17.3771 -175.7251 0.0000 -0.0000 0.0000 111.3289 49.6946 91.9676 -16.9674 26.8147 -4.0726 0.0000 -0.0000 -10.1699 -2.3980 -1.6807 0.0704 7.1250 -0.0000 -0.0000 19.0945 -31.2689 6.7449
